<svg xmlns="http://www.w3.org/2000/svg" version="1.0" width="2816.000000pt" height="1536.000000pt" viewBox="-3 -3 2822 1542" preserveAspectRatio="xMidYMid meet" transform="matrix(1, 0, 0, 1, 0, 0)"><g id="deeditor_bgCarrier" stroke-width="0">
  <rect id="dee_c_e" x="-3" y="-3" width="2822" height="1542" rx="38.4" fill="#242626" strokewidth="0"/>
</g>

<g transform="translate(0.000000,1536.000000) scale(0.100000,-0.100000)" fill="#fcf67e" stroke="none">
<path d="M13075 13276 c-120 -58 -249 -207 -381 -438 -21 -38 -43 -68 -49 -68 -5 0 -68 16 -140 35 -192 52 -329 69 -545 69 -273 0 -446 -38 -665 -143 -300 -145 -509 -384 -596 -682 -25 -86 -22 -105 17 -115 21 -6 31 -2 46 16 10 12 18 31 18 42 0 31 58 165 109 251 89 152 205 267 366 363 149 88 300 138 492 164 115 16 425 8 540 -14 87 -16 303 -66 315 -72 4 -3 -8 -37 -27 -77 -49 -106 -144 -346 -220 -557 -85 -235 -185 -477 -315 -765 -10 -22 -68 -150 -128 -285 -61 -135 -140 -310 -177 -390 -37 -80 -102 -221 -145 -315 -42 -93 -91 -199 -108 -235 -95 -204 -333 -722 -455 -990 -41 -91 -107 -235 -147 -320 -109 -233 -345 -747 -440 -955 -12 -27 -53 -115 -90 -195 -37 -80 -106 -228 -153 -330 -47 -102 -102 -221 -122 -265 -21 -44 -63 -136 -95 -205 -32 -69 -77 -165 -100 -215 -23 -49 -52 -115 -65 -145 -13 -30 -47 -104 -75 -165 -29 -60 -67 -144 -85 -185 -18 -41 -53 -118 -78 -170 -24 -52 -70 -157 -102 -234 -49 -117 -56 -142 -46 -162 14 -31 51 -32 78 -1 25 28 195 321 314 542 15 28 55 100 89 160 34 61 85 153 113 205 27 52 68 126 89 163 21 38 38 70 38 72 0 2 17 34 39 72 21 37 60 109 86 158 26 50 58 108 70 130 13 22 68 126 123 230 55 105 114 217 132 250 43 80 271 510 350 660 35 66 107 201 160 300 54 99 164 306 245 460 81 154 155 294 165 310 10 17 70 131 135 255 65 124 173 329 240 455 165 310 574 1084 670 1270 95 182 182 338 260 465 176 288 282 477 366 650 37 79 45 89 63 84 12 -4 166 -80 343 -169 176 -90 386 -192 465 -228 146 -66 498 -207 517 -207 6 0 11 -1 11 -3 0 -2 -25 -48 -55 -102 -201 -363 -317 -803 -332 -1251 -6 -178 5 -370 29 -496 l10 -56 -55 -114 c-257 -531 -366 -1270 -291 -1968 41 -383 126 -639 257 -773 51 -52 120 -87 172 -87 51 0 121 35 171 85 160 160 245 613 204 1085 -25 283 -74 535 -209 1067 -101 401 -151 622 -151 666 0 43 129 226 235 332 226 227 567 409 891 474 213 43 331 54 574 54 314 0 508 -27 1000 -139 273 -62 396 -83 539 -94 68 -5 127 -12 132 -17 4 -4 9 -331 10 -726 l3 -719 -113 -58 -113 -59 -112 78 c-227 159 -462 302 -612 372 -551 260 -1041 195 -1212 -161 -63 -131 -76 -241 -47 -382 41 -198 170 -356 361 -444 247 -113 539 -109 854 11 127 48 384 182 553 289 76 47 156 95 179 107 l41 21 107 -73 c91 -62 109 -78 113 -104 5 -29 -2 -1908 -7 -1912 -8 -9 -305 66 -509 128 -589 179 -858 231 -1202 232 -200 0 -324 -11 -490 -44 -386 -78 -638 -182 -864 -358 -171 -132 -270 -253 -354 -430 l-43 -90 -60 60 c-249 255 -589 424 -1019 508 -288 56 -672 54 -995 -5 -85 -16 -195 -39 -454 -96 -77 -17 -174 -37 -215 -44 -42 -8 -137 -26 -211 -40 -163 -30 -430 -44 -455 -24 -13 11 -15 77 -15 521 0 448 -2 509 -16 523 -19 20 -24 20 -52 0 l-22 -15 0 -516 c0 -579 -1 -567 71 -603 93 -48 409 -8 1026 129 327 72 401 85 618 107 282 27 575 9 815 -51 132 -34 368 -118 453 -162 170 -87 370 -241 493 -378 37 -41 71 -75 76 -75 4 0 49 43 100 96 220 227 434 361 748 464 244 80 425 105 760 104 294 0 392 -12 745 -90 508 -112 638 -135 872 -155 234 -19 283 5 299 145 l7 56 82 0 82 0 6 -127 c4 -71 7 -194 7 -275 0 -135 -2 -150 -20 -168 -20 -20 -33 -20 -1599 -20 l-1580 0 -57 -52 c-82 -77 -111 -97 -192 -135 -132 -62 -257 -77 -400 -47 -118 24 -195 66 -289 156 l-82 78 -1583 0 c-1417 0 -1586 2 -1606 16 l-22 15 0 485 c0 472 0 484 -20 504 -22 22 -52 15 -64 -16 -3 -8 -6 -235 -6 -503 l0 -488 30 -41 c20 -28 41 -44 67 -51 26 -8 540 -11 1603 -11 l1566 0 53 -55 c139 -143 315 -205 544 -192 138 8 220 35 337 112 36 23 86 63 112 89 l47 46 1561 0 c1707 0 1600 -4 1653 59 l27 33 0 298 0 298 48 11 c140 30 274 99 380 197 90 83 139 153 185 269 87 219 89 441 8 685 -86 255 -226 431 -523 657 l-98 74 0 256 0 256 93 -6 c145 -10 253 -53 366 -148 56 -46 65 -51 87 -41 37 18 31 52 -20 103 -99 100 -263 168 -428 176 l-98 6 0 551 c0 424 -3 557 -13 576 -18 36 -63 55 -128 55 -59 -1 -89 -15 -89 -44 0 -33 18 -44 75 -47 32 -2 60 -6 64 -10 3 -3 7 -250 9 -548 l3 -542 -68 -16 c-37 -10 -78 -20 -90 -24 l-23 -6 0 707 c0 625 -2 711 -16 740 -25 54 -52 65 -182 75 -170 14 -406 53 -572 96 -146 37 -466 100 -620 121 -176 24 -596 24 -770 0 -403 -57 -679 -164 -958 -372 -147 -109 -315 -282 -371 -384 -5 -9 -12 -13 -16 -9 -14 13 -18 513 -6 628 36 329 125 632 271 925 44 88 87 168 94 178 13 17 20 16 153 -22 264 -77 407 -100 673 -108 268 -8 427 15 607 87 117 47 189 95 283 190 150 150 208 306 182 496 -19 146 -80 243 -200 325 -143 96 -354 129 -547 84 -119 -27 -146 -36 -250 -81 -212 -93 -363 -200 -561 -398 -134 -134 -254 -275 -337 -398 l-39 -56 -46 19 c-223 86 -420 168 -530 218 -140 64 -761 377 -776 391 -5 5 6 45 24 92 53 139 90 309 90 413 -1 98 -13 145 -55 205 -55 79 -171 103 -270 56z m185 -94 c76 -76 65 -257 -32 -534 -31 -90 -38 -97 -81 -77 l-25 11 35 100 c38 108 66 256 57 297 -22 102 -94 114 -182 29 -106 -103 -253 -351 -357 -603 -89 -216 -175 -510 -175 -599 0 -36 33 -66 73 -66 38 0 62 22 155 146 89 118 272 432 332 567 21 47 34 51 74 22 17 -13 13 -24 -79 -201 -89 -171 -180 -329 -312 -539 -65 -106 -188 -327 -303 -550 -51 -99 -154 -295 -228 -435 -74 -140 -162 -307 -195 -370 -64 -123 -196 -370 -244 -460 -17 -30 -56 -104 -88 -165 -112 -214 -148 -281 -215 -405 -70 -129 -96 -179 -248 -465 -157 -296 -251 -473 -377 -710 -67 -126 -194 -365 -280 -530 -87 -165 -181 -340 -208 -390 -27 -49 -72 -133 -100 -185 -27 -52 -69 -129 -92 -170 -23 -41 -59 -109 -80 -150 -42 -85 -136 -250 -141 -250 -2 0 16 41 41 90 25 50 74 152 109 228 35 75 79 171 99 212 62 132 276 598 290 632 8 18 59 130 115 248 55 118 138 298 185 400 47 102 134 291 195 420 60 129 124 269 142 310 18 41 104 230 192 420 88 190 163 354 168 365 5 11 57 124 115 250 59 127 113 244 120 260 7 17 38 84 68 150 56 122 190 419 312 690 37 83 81 179 97 215 17 36 40 90 53 120 12 30 44 107 70 170 46 114 105 268 192 510 148 408 323 735 485 906 78 82 133 114 196 114 34 0 49 -6 72 -28z m-133 -264 c-7 -46 -56 -213 -78 -264 l-14 -31 -62 28 -63 29 31 52 c69 117 158 228 182 228 6 0 7 -19 4 -42z m3024 -192 c125 -27 241 -107 286 -198 27 -52 53 -150 53 -195 0 -118 -63 -255 -163 -356 -121 -121 -250 -186 -454 -229 -91 -19 -139 -22 -303 -22 -202 0 -298 9 -510 50 -122 23 -320 79 -320 90 0 8 118 163 179 234 149 174 328 337 476 432 146 94 339 176 466 197 83 14 217 12 290 -3z m-3204 -168 l52 -21 -56 -111 c-90 -175 -183 -329 -303 -498 -19 -26 -35 -46 -37 -44 -4 4 16 82 52 201 32 106 106 294 164 419 34 73 44 87 58 81 10 -4 42 -16 70 -27z m1358 -2988 c14 -69 51 -217 81 -330 172 -654 244 -1089 231 -1413 -14 -335 -72 -570 -176 -706 -43 -57 -121 -77 -180 -47 -84 44 -174 223 -226 449 -28 123 -55 349 -65 547 -28 549 72 1159 263 1598 36 85 31 92 72 -98z m1990 -155 c207 -29 400 -103 650 -248 100 -58 465 -298 465 -306 -1 -9 -383 -234 -513 -301 -144 -75 -345 -144 -483 -165 -374 -59 -705 100 -795 383 -31 96 -30 254 1 335 29 76 103 173 168 218 61 43 161 77 258 88 105 12 140 12 249 -4z m1705 -625 c0 -121 -2 -220 -5 -220 -2 0 -43 27 -90 61 l-85 61 0 133 c0 89 4 136 11 141 13 7 136 42 157 43 9 1 12 -49 12 -219z m-270 50 c0 -44 -2 -80 -5 -80 -6 0 -135 91 -135 96 0 8 106 64 123 64 15 0 17 -10 17 -80z m208 -337 l62 -44 0 -869 c0 -477 -3 -875 -6 -884 -7 -17 -66 -21 -136 -10 l-38 7 0 939 0 940 28 -17 c15 -10 55 -38 90 -62z m248 -184 c263 -200 408 -418 466 -704 38 -186 9 -390 -80 -560 -47 -89 -154 -198 -246 -250 -75 -42 -201 -94 -228 -95 -17 0 -18 47 -18 840 0 462 3 840 7 840 4 0 48 -32 99 -71z m-1916 -1354 c183 -18 253 -30 460 -84 222 -58 278 -74 535 -152 127 -38 283 -80 348 -92 l118 -21 -6 -46 c-11 -79 2 -74 -168 -67 -213 9 -383 37 -787 128 -642 145 -937 161 -1390 75 -365 -69 -693 -224 -917 -431 -46 -42 -83 -73 -83 -70 0 16 66 125 119 194 89 118 264 257 436 345 102 53 319 132 454 165 262 66 572 86 881 56z" fill="#fcf67e"/>
<path d="M12531 10811 c-35 -9 -47 -34 -34 -64 l11 -24 224 -6 c247 -6 344 -22 573 -89 221 -66 540 -252 673 -392 67 -71 83 -79 110 -60 34 24 26 51 -30 111 -199 209 -561 399 -908 477 -200 44 -538 70 -619 47z" fill="#fcf67e"/>
<path d="M11485 10690 c-254 -59 -378 -83 -507 -99 -166 -20 -185 -26 -217 -67 -21 -27 -21 -32 -21 -828 0 -611 3 -805 12 -814 7 -7 21 -12 33 -12 12 0 26 5 33 12 9 9 12 200 12 799 0 433 4 790 8 793 5 3 71 12 148 21 76 9 218 35 314 57 96 22 186 42 200 45 35 8 60 32 60 58 0 28 -35 44 -75 35z" fill="#fcf67e"/>
<path d="M10527 10279 c-48 -28 -47 -3 -47 -1002 0 -908 1 -934 19 -951 17 -16 41 -13 63 7 2 1 5 421 8 932 l5 930 60 5 c68 6 85 14 85 40 0 46 -8 50 -94 50 -44 0 -89 -5 -99 -11z" fill="#fcf67e"/>
<path d="M12690 6373 c-25 -2 -153 -15 -285 -28 -132 -14 -285 -29 -340 -35 -283 -28 -547 -42 -897 -47 -417 -6 -417 -6 -404 -58 4 -16 16 -27 34 -32 15 -4 160 -7 322 -6 385 1 811 29 1255 83 439 53 714 50 1020 -11 105 -21 296 -81 380 -120 71 -33 88 -37 108 -27 26 13 21 54 -10 76 -36 25 -118 62 -213 96 -237 86 -662 133 -970 109z" fill="#fcf67e"/>
<path d="M15490 6374 c-19 -2 -78 -9 -130 -14 -207 -22 -440 -84 -580 -153 -58 -28 -65 -35 -65 -61 0 -52 22 -53 133 -7 285 116 640 167 1003 143 97 -7 232 -19 300 -27 595 -68 1144 -103 1474 -92 150 5 160 6 177 27 16 20 17 25 5 44 -14 21 -22 21 -418 27 -228 4 -484 14 -589 23 -269 23 -577 54 -720 72 -120 14 -517 27 -590 18z" fill="#fcf67e"/>
<path d="M13832 4786 c-143 -35 -284 -145 -349 -273 -59 -114 -68 -158 -68 -313 1 -121 3 -142 28 -209 78 -215 226 -343 439 -380 86 -15 125 -14 215 5 90 18 157 50 233 110 71 56 103 97 146 187 49 103 67 200 61 317 -17 286 -173 491 -422 555 -71 18 -209 18 -283 1z m298 -125 c119 -46 218 -154 262 -286 33 -99 32 -252 -2 -345 -39 -109 -109 -203 -190 -254 -153 -98 -412 -64 -530 70 -87 100 -128 194 -137 321 -18 242 118 447 337 510 64 18 193 11 260 -16z" fill="#fcf67e"/>
<path d="M17121 4784 c-106 -28 -202 -82 -271 -153 -117 -119 -165 -246 -164 -436 0 -104 4 -131 28 -199 48 -139 140 -249 269 -320 138 -75 320 -93 467 -47 99 31 166 65 186 97 16 24 16 27 -3 52 -27 36 -57 39 -101 10 -69 -45 -123 -61 -228 -66 -85 -4 -113 -1 -176 18 -133 39 -231 135 -288 281 -31 81 -32 88 -27 199 7 184 57 285 185 377 84 60 146 83 248 90 91 7 157 -9 256 -59 87 -44 109 -44 134 4 14 28 14 31 -3 50 -25 28 -167 94 -231 107 -73 15 -216 13 -281 -5z" fill="#fcf67e"/>
<path d="M9460 4772 l-22 -17 2 -550 c1 -499 2 -551 18 -568 15 -17 34 -18 312 -15 277 3 298 5 342 25 55 25 122 84 153 133 49 78 50 232 1 328 -27 53 -51 77 -115 117 l-44 27 30 19 c33 21 76 77 93 123 6 16 11 61 12 100 3 150 -87 258 -236 285 -33 6 -164 11 -292 11 -207 0 -234 -2 -254 -18z m565 -119 c22 -12 47 -33 57 -46 44 -62 46 -178 5 -239 -12 -17 -42 -42 -66 -55 -42 -22 -54 -23 -258 -23 l-213 0 0 189 c0 142 3 191 13 195 6 3 104 4 217 3 190 -2 208 -4 245 -24z m0 -492 c103 -28 149 -91 149 -206 1 -118 -55 -191 -165 -214 -27 -6 -142 -11 -254 -11 l-205 0 0 218 c0 120 2 221 4 223 10 9 434 0 471 -10z" fill="#fcf67e"/>
<path d="M10566 4768 c-14 -20 -16 -90 -16 -569 0 -516 1 -547 18 -562 24 -22 65 -21 85 1 15 17 17 70 17 556 0 537 -2 567 -34 588 -21 15 -55 8 -70 -14z" fill="#fcf67e"/>
<path d="M11017 4772 c-15 -17 -17 -71 -17 -569 0 -527 1 -551 19 -567 17 -15 47 -17 312 -14 282 3 296 4 344 26 59 27 117 80 153 141 35 61 43 191 16 278 -22 69 -103 159 -154 169 l-31 7 41 34 c22 19 52 56 68 81 25 43 27 56 27 147 -1 96 -2 102 -34 153 -21 33 -49 62 -78 79 -77 45 -136 53 -404 53 -226 0 -247 -2 -262 -18z m572 -122 c77 -43 109 -142 77 -237 -19 -57 -45 -85 -98 -108 -30 -12 -80 -15 -243 -15 l-205 0 0 196 0 196 213 -4 c204 -3 214 -4 256 -28z m16 -496 c93 -38 130 -100 129 -210 -1 -108 -60 -181 -165 -203 -27 -6 -140 -11 -249 -11 l-200 0 0 220 0 220 224 0 c180 0 231 -3 261 -16z" fill="#fcf67e"/>
<path d="M12123 4764 c-14 -22 -18 -53 -19 -163 -2 -96 1 -138 9 -143 9 -6 9 -8 0 -8 -10 0 -13 -39 -13 -163 0 -117 4 -167 13 -176 10 -11 10 -13 0 -7 -9 5 -13 -1 -13 -18 0 -13 6 -27 13 -29 10 -4 10 -6 0 -6 -10 -1 -13 -46 -13 -191 0 -181 1 -191 22 -215 l22 -25 316 0 c269 0 319 2 338 16 28 20 30 69 3 84 -12 6 -124 10 -295 10 l-276 0 0 510 c0 497 -1 511 -20 530 -28 28 -66 26 -87 -6z m-6 -876 c-3 -8 -6 -5 -6 6 -1 11 2 17 5 13 3 -3 4 -12 1 -19z" fill="#fcf67e"/>
<path d="M13052 4778 c-9 -9 -12 -149 -12 -569 0 -494 2 -559 16 -573 19 -19 54 -21 78 -3 16 12 17 52 16 572 0 512 -2 561 -17 573 -21 15 -65 16 -81 0z" fill="#fcf67e"/>
<path d="M14670 4770 c-25 -25 -26 -52 -2 -73 16 -15 45 -17 195 -17 l177 0 0 -508 c0 -430 2 -511 15 -529 21 -30 51 -34 80 -11 l25 19 0 515 0 514 190 0 c177 0 190 1 200 19 15 29 12 56 -8 74 -17 15 -62 17 -435 17 -404 0 -418 -1 -437 -20z" fill="#fcf67e"/>
<path d="M15800 4770 c-20 -20 -20 -33 -20 -563 0 -475 2 -545 16 -565 15 -22 15 -22 348 -22 310 0 334 1 349 18 21 23 22 65 3 81 -10 8 -101 12 -303 14 l-288 2 0 215 0 215 244 3 c160 1 249 6 258 13 18 15 16 64 -3 83 -13 14 -51 16 -260 16 l-244 0 2 198 3 197 270 2 c149 2 278 3 287 3 22 0 48 27 48 50 0 11 -10 28 -22 40 -21 19 -34 20 -345 20 -310 0 -324 -1 -343 -20z" fill="#fcf67e"/>
<path d="M18215 4766 c-9 -14 -33 -69 -54 -123 -21 -54 -80 -196 -130 -316 -50 -121 -91 -221 -91 -224 0 -3 -16 -39 -35 -80 -19 -41 -35 -79 -35 -84 0 -4 -9 -28 -20 -51 -46 -102 -90 -226 -85 -240 10 -25 59 -42 84 -28 23 12 28 23 101 205 l48 120 254 3 c139 1 262 0 274 -2 15 -4 33 -36 72 -128 28 -68 56 -135 61 -150 22 -59 94 -74 120 -25 10 20 7 34 -23 107 -20 47 -40 92 -45 101 -11 20 -131 307 -131 315 0 3 -12 31 -26 62 -14 31 -50 116 -79 187 -160 392 -150 375 -205 375 -31 0 -43 -5 -55 -24z m209 -532 c36 -88 66 -163 66 -167 0 -4 -99 -7 -220 -7 -136 0 -220 4 -220 10 0 5 12 35 26 67 14 32 56 135 94 228 38 94 76 188 85 210 l17 39 43 -109 c23 -61 72 -182 109 -271z" fill="#fcf67e"/>
<path d="M12770 3113 c-60 -7 -156 -42 -203 -76 -130 -93 -197 -229 -197 -404 0 -220 111 -386 304 -454 43 -15 83 -20 155 -20 121 0 182 18 259 76 163 123 229 354 158 560 -46 135 -112 217 -213 269 -77 38 -181 58 -263 49z m135 -109 c83 -21 133 -53 179 -114 118 -155 113 -383 -10 -530 -88 -104 -263 -139 -396 -78 -72 33 -124 87 -160 164 -93 198 -25 444 146 531 89 46 147 52 241 27z" fill="#fcf67e"/>
<path d="M17493 3109 c-267 -25 -447 -290 -393 -580 24 -127 127 -268 239 -328 113 -60 306 -61 416 -3 284 152 330 580 87 803 -96 88 -204 121 -349 108z m201 -128 c76 -37 118 -82 160 -171 29 -61 31 -72 31 -180 0 -109 -2 -118 -32 -181 -37 -75 -101 -140 -171 -172 -70 -33 -208 -31 -277 3 -67 32 -127 97 -167 177 -28 57 -33 79 -36 158 -5 117 13 182 72 263 101 136 269 178 420 103z" fill="#fcf67e"/>
<path d="M18387 3110 c-106 -19 -193 -83 -221 -166 -20 -59 -20 -96 -1 -160 27 -92 91 -134 300 -199 138 -43 177 -67 200 -128 22 -59 8 -113 -40 -156 -47 -41 -103 -54 -198 -48 -82 5 -133 27 -201 88 -49 43 -106 36 -106 -13 0 -29 73 -100 134 -131 138 -70 380 -47 462 45 62 67 81 169 49 259 -31 87 -95 131 -258 178 -172 50 -228 84 -247 152 -32 111 83 201 237 185 79 -8 118 -23 165 -65 43 -38 62 -39 84 -6 23 35 8 66 -48 101 -90 58 -208 82 -311 64z" fill="#fcf67e"/>
<path d="M10409 3092 c-18 -12 -19 -35 -19 -456 0 -409 1 -444 18 -459 14 -13 56 -15 273 -17 241 -1 257 0 280 19 23 19 23 21 9 48 l-16 28 -232 3 -232 2 0 170 0 170 200 0 c187 0 200 1 210 19 14 27 13 47 -6 65 -13 13 -46 16 -210 16 l-194 0 0 155 0 155 228 0 c164 0 231 3 240 12 16 16 15 53 -1 66 -21 18 -524 21 -548 4z" fill="#fcf67e"/>
<path d="M15587 3098 c-9 -7 -36 -62 -61 -123 -24 -60 -75 -182 -111 -270 -162 -389 -205 -499 -199 -517 7 -23 46 -33 72 -19 11 6 27 30 35 53 8 24 29 78 47 121 l32 77 221 -2 221 -3 38 -95 c57 -144 67 -160 98 -160 15 0 35 9 44 19 17 19 16 26 -47 173 -135 319 -198 470 -237 569 -23 55 -49 118 -60 139 -25 50 -59 63 -93 38z m116 -342 c43 -102 80 -197 83 -213 l6 -28 -176 3 -175 3 16 42 c9 23 41 101 71 172 30 72 61 147 70 168 8 20 18 37 22 37 3 0 41 -83 83 -184z" fill="#fcf67e"/>
<path d="M9430 3080 c-13 -24 -10 -894 3 -907 13 -12 424 -5 482 8 60 14 140 63 179 110 129 152 140 472 22 647 -42 63 -118 118 -195 142 -54 17 -92 20 -272 20 -198 0 -209 -1 -219 -20z m465 -95 c80 -26 117 -61 156 -143 82 -170 50 -408 -68 -512 -68 -60 -112 -70 -295 -70 l-158 0 -1 333 c0 182 -2 348 -4 367 -2 19 -1 38 2 42 2 5 71 7 153 7 125 -1 160 -5 215 -24z" fill="#fcf67e"/>
<path d="M11557 3093 c-4 -3 -7 -208 -7 -454 0 -400 2 -449 16 -464 15 -14 43 -16 250 -11 256 6 281 11 353 72 76 64 98 211 47 312 -24 48 -69 91 -108 105 -24 8 -23 24 1 32 27 8 67 64 80 110 34 122 -8 228 -111 279 -51 26 -54 26 -283 26 -128 0 -235 -3 -238 -7z m473 -108 c51 -30 72 -77 66 -144 -6 -62 -27 -96 -76 -122 -30 -16 -58 -19 -202 -19 l-168 0 0 156 0 156 173 -4 c151 -3 176 -5 207 -23z m-31 -384 c83 -16 130 -70 137 -157 6 -77 -21 -129 -86 -161 -41 -21 -58 -23 -220 -23 -97 0 -179 2 -181 4 -2 2 -3 81 -1 175 l3 171 152 0 c84 -1 172 -5 196 -9z" fill="#fcf67e"/>
<path d="M13467 3093 c-4 -3 -7 -210 -7 -458 0 -350 3 -455 13 -462 18 -15 50 -12 70 5 15 13 17 36 17 194 l0 178 173 0 c117 0 180 -4 197 -13 45 -23 67 -69 74 -159 10 -113 23 -154 63 -188 35 -32 62 -37 94 -20 26 14 24 42 -6 70 -29 28 -41 64 -50 150 -12 117 -31 156 -100 204 -19 13 -18 15 17 36 74 43 114 122 112 223 -1 56 -6 76 -30 114 -35 56 -99 108 -152 123 -40 11 -474 14 -485 3z m479 -110 c52 -27 80 -81 77 -155 -2 -73 -26 -123 -76 -156 -39 -26 -46 -27 -214 -30 l-173 -4 0 188 0 187 174 -5 c147 -4 179 -8 212 -25z" fill="#fcf67e"/>
<path d="M14367 3086 c-4 -9 -7 -215 -7 -457 -1 -346 2 -444 12 -456 11 -14 42 -15 242 -10 l229 6 64 32 c148 75 223 220 223 429 0 208 -83 361 -235 436 l-60 29 -231 3 c-204 3 -232 2 -237 -12z m447 -96 c78 -24 122 -60 159 -128 119 -220 38 -529 -154 -586 -38 -12 -96 -16 -206 -16 l-153 0 0 375 0 375 144 0 c117 0 156 -4 210 -20z" fill="#fcf67e"/>
<path d="M16197 3094 c-4 -4 -7 -209 -7 -455 0 -409 1 -449 17 -465 16 -15 38 -16 233 -11 191 5 222 8 275 28 109 42 201 157 234 294 18 70 15 238 -4 310 -32 119 -110 217 -214 268 l-66 32 -230 3 c-127 2 -233 0 -238 -4z m466 -104 c48 -14 110 -70 144 -128 88 -149 64 -407 -48 -520 -68 -69 -94 -76 -291 -80 l-178 -4 0 377 0 377 168 -5 c92 -2 184 -10 205 -17z" fill="#fcf67e"/>
</g>
</svg>